<svg width="1920" height="1000" xmlns="http://www.w3.org/2000/svg" style="background:#2f3246"><defs><linearGradient x1="135.216%" y1="-13.223%" x2="8.594%" y2="100%" id="a"><stop stop-color="#FCFCFC" offset="0%"/><stop stop-color="#FCFCFF" offset="100%"/></linearGradient></defs><g fill="none" fill-rule="evenodd"><path fill="url(#a)" d="M-180 0h2282v1000H-180z"/><g transform="translate(1378 253)" fill="#EBEBEB"><circle cx="65" cy="105" r="5"/><circle cx="45" cy="105" r="5"/><circle cx="25" cy="105" r="5"/><circle cx="5" cy="105" r="5"/><circle cx="65" cy="85" r="5"/><circle cx="45" cy="85" r="5"/><circle cx="25" cy="85" r="5"/><circle cx="5" cy="85" r="5"/><circle cx="65" cy="65" r="5"/><circle cx="45" cy="65" r="5"/><circle cx="25" cy="65" r="5"/><circle cx="5" cy="65" r="5"/><circle cx="65" cy="45" r="5"/><circle cx="45" cy="45" r="5"/><circle cx="25" cy="45" r="5"/><circle cx="5" cy="45" r="5"/><circle cx="65" cy="25" r="5"/><circle cx="45" cy="25" r="5"/><circle cx="25" cy="25" r="5"/><circle cx="5" cy="25" r="5"/><circle cx="65" cy="5" r="5"/><circle cx="45" cy="5" r="5"/><circle cx="25" cy="5" r="5"/><circle cx="5" cy="5" r="5"/></g></g></svg>