<?xml version="1.0" encoding="iso-8859-1"?>
<!-- Generator: Adobe Illustrator 19.0.0, SVG Export Plug-In . SVG Version: 6.00 Build 0)  -->
<svg version="1.1" id="Layer_1" xmlns="http://www.w3.org/2000/svg" xmlns:xlink="http://www.w3.org/1999/xlink" x="0px" y="0px"
	 viewBox="0 0 490 490" style="enable-background:new 0 0 490 490;" xml:space="preserve">
<g>
	<g>
		<g>
			<path d="M480,15.871H10c-5.523,0-10,4.477-10,10v410c0,5.523,4.477,10,10,10h260V299.577c-3.229-8.972-5-18.635-5-28.706
				c0-46.869,38.131-85,85-85c46.869,0,85,38.131,85,85c0,10.071-1.771,19.733-5,28.706v146.294h50c5.523,0,10-4.477,10-10v-410
				C490,20.349,485.523,15.871,480,15.871z M45,175.871h40v20H45V175.871z M175,395.871H45v-20h130V395.871z M235,345.871H45v-20
				h190V345.871z M235,295.871H45v-20h190V295.871z M235,245.871H45v-20h190V245.871z M285,135.871h-80v-20h80V135.871z M335,95.871
				H155v-20h180V95.871z"/>
			<path d="M290,331.02v143.109l50-42.857v-55.4h20v55.4l50,42.857V331.02c-15.385,15.348-36.603,24.852-60,24.852
				C326.603,355.872,305.385,346.368,290,331.02z"/>
			<path d="M350,205.871c-35.841,0-65,29.159-65,65s29.159,65,65,65s65-29.159,65-65S385.841,205.871,350,205.871z"/>
		</g>
	</g>
</g>
<g>
</g>
<g>
</g>
<g>
</g>
<g>
</g>
<g>
</g>
<g>
</g>
<g>
</g>
<g>
</g>
<g>
</g>
<g>
</g>
<g>
</g>
<g>
</g>
<g>
</g>
<g>
</g>
<g>
</g>
</svg>
