<svg class="svg-icon" style="width: 1em; height: 1em;vertical-align: middle;fill: currentColor;overflow: hidden;" viewBox="0 0 1024 1024" version="1.1" xmlns="http://www.w3.org/2000/svg"><path d="M384 0H64C25.6 0 0 25.6 0 64v320c0 38.4 25.6 64 64 64h320c38.4 0 64-25.6 64-64V64c0-38.4-25.6-64-64-64z m576 0h-320c-38.4 0-64 25.6-64 64v320c0 38.4 25.6 64 64 64h320c38.4 0 64-25.6 64-64V64c0-38.4-25.6-64-64-64z m0 576h-320c-38.4 0-64 25.6-64 64v320c0 38.4 25.6 64 64 64h320c38.4 0 64-25.6 64-64v-320c0-38.4-25.6-64-64-64zM384 576H64c-38.4 0-64 25.6-64 64v320c0 38.4 25.6 64 64 64h320c38.4 0 64-25.6 64-64v-320c0-38.4-25.6-64-64-64z" fill="#8492A6" /></svg>