<svg width="200" height="247" viewBox="0 0 200 247" fill="none" xmlns="http://www.w3.org/2000/svg">
<g clip-path="url(#clip0)">
<rect width="200" height="247" rx="10" fill="white"/>
<g filter="url(#filter0_f)">
<rect width="100" height="130" fill="#FF9696"/>
</g>
<g filter="url(#filter1_f)">
<rect y="129" width="100" height="130" fill="#FFF969"/>
</g>
<g filter="url(#filter2_f)">
<rect x="100" y="128" width="100" height="130" fill="#4B88FF"/>
</g>
<g filter="url(#filter3_f)">
<rect x="100" y="62" width="100" height="130" fill="#FB4BFF"/>
</g>
<g filter="url(#filter4_f)">
<rect x="100" y="-1" width="100" height="130" fill="#FF774B"/>
</g>
<g filter="url(#filter5_d)">
<g clip-path="url(#clip1)">
<rect x="-16" y="123.475" width="232.232" height="242.864" rx="10" transform="rotate(-54.2508 -16 123.475)" fill="white"/>
<rect x="-27.2499" y="139.102" width="119.256" height="130" transform="rotate(-54.2508 -27.2499 139.102)" fill="#FF9696"/>
<rect x="75.418" y="217.284" width="122.724" height="130" rx="3" transform="rotate(-54.2508 75.418 217.284)" fill="#FFF969"/>
<rect x="146.306" y="117.099" width="100" height="130" rx="3" transform="rotate(-54.2508 146.306 117.099)" fill="#4B88FF"/>
<rect x="92.742" y="78.5396" width="100" height="130" rx="3" transform="rotate(-54.2508 92.742 78.5396)" fill="#FB4BFF"/>
<rect x="41.6123" y="41.7326" width="145.351" height="130" rx="3" transform="rotate(-54.2508 41.6123 41.7326)" fill="#FF774B"/>
</g>
</g>
</g>
<defs>
<filter id="filter0_f" x="-4" y="-4" width="108" height="138" filterUnits="userSpaceOnUse" color-interpolation-filters="sRGB">
<feFlood flood-opacity="0" result="BackgroundImageFix"/>
<feBlend mode="normal" in="SourceGraphic" in2="BackgroundImageFix" result="shape"/>
<feGaussianBlur stdDeviation="2" result="effect1_foregroundBlur"/>
</filter>
<filter id="filter1_f" x="-4" y="125" width="108" height="138" filterUnits="userSpaceOnUse" color-interpolation-filters="sRGB">
<feFlood flood-opacity="0" result="BackgroundImageFix"/>
<feBlend mode="normal" in="SourceGraphic" in2="BackgroundImageFix" result="shape"/>
<feGaussianBlur stdDeviation="2" result="effect1_foregroundBlur"/>
</filter>
<filter id="filter2_f" x="96" y="124" width="108" height="138" filterUnits="userSpaceOnUse" color-interpolation-filters="sRGB">
<feFlood flood-opacity="0" result="BackgroundImageFix"/>
<feBlend mode="normal" in="SourceGraphic" in2="BackgroundImageFix" result="shape"/>
<feGaussianBlur stdDeviation="2" result="effect1_foregroundBlur"/>
</filter>
<filter id="filter3_f" x="96" y="58" width="108" height="138" filterUnits="userSpaceOnUse" color-interpolation-filters="sRGB">
<feFlood flood-opacity="0" result="BackgroundImageFix"/>
<feBlend mode="normal" in="SourceGraphic" in2="BackgroundImageFix" result="shape"/>
<feGaussianBlur stdDeviation="2" result="effect1_foregroundBlur"/>
</filter>
<filter id="filter4_f" x="96" y="-5" width="108" height="138" filterUnits="userSpaceOnUse" color-interpolation-filters="sRGB">
<feFlood flood-opacity="0" result="BackgroundImageFix"/>
<feBlend mode="normal" in="SourceGraphic" in2="BackgroundImageFix" result="shape"/>
<feGaussianBlur stdDeviation="2" result="effect1_foregroundBlur"/>
</filter>
<filter id="filter5_d" x="-20" y="-65" width="340.783" height="338.365" filterUnits="userSpaceOnUse" color-interpolation-filters="sRGB">
<feFlood flood-opacity="0" result="BackgroundImageFix"/>
<feColorMatrix in="SourceAlpha" type="matrix" values="0 0 0 0 0 0 0 0 0 0 0 0 0 0 0 0 0 0 127 0"/>
<feOffset dy="4"/>
<feGaussianBlur stdDeviation="2"/>
<feColorMatrix type="matrix" values="0 0 0 0 0 0 0 0 0 0 0 0 0 0 0 0 0 0 0.25 0"/>
<feBlend mode="normal" in2="BackgroundImageFix" result="effect1_dropShadow"/>
<feBlend mode="normal" in="SourceGraphic" in2="effect1_dropShadow" result="shape"/>
</filter>
<clipPath id="clip0">
<rect width="200" height="247" rx="10" fill="white"/>
</clipPath>
<clipPath id="clip1">
<rect x="-16" y="123.475" width="232.232" height="242.864" rx="10" transform="rotate(-54.2508 -16 123.475)" fill="white"/>
</clipPath>
</defs>
</svg>
