<?xml version="1.0" encoding="UTF-8"?>
<svg xmlns="http://www.w3.org/2000/svg" xmlns:xlink="http://www.w3.org/1999/xlink" viewBox="0 0 30 30" width="30px" height="30px">
<g id="surface5396175">
<path style=" stroke:none;fill-rule:nonzero;fill:rgb(20.392157%,59.607846%,85.882354%);fill-opacity:1;" d="M 17.4375 15 C 17.4375 16.347656 16.347656 17.4375 15 17.4375 C 13.652344 17.4375 12.5625 16.347656 12.5625 15 C 12.5625 13.652344 13.652344 12.5625 15 12.5625 C 16.347656 12.5625 17.4375 13.652344 17.4375 15 Z M 17.4375 15 "/>
<path style=" stroke:none;fill-rule:nonzero;fill:rgb(30.588236%,47.843137%,70.980394%);fill-opacity:1;" d="M 15 17.625 C 13.554688 17.625 12.375 16.449219 12.375 15 C 12.375 13.550781 13.554688 12.375 15 12.375 C 16.445312 12.375 17.625 13.550781 17.625 15 C 17.625 16.449219 16.445312 17.625 15 17.625 Z M 15 12.75 C 13.757812 12.75 12.75 13.757812 12.75 15 C 12.75 16.242188 13.757812 17.25 15 17.25 C 16.242188 17.25 17.25 16.242188 17.25 15 C 17.25 13.757812 16.242188 12.75 15 12.75 Z M 15 12.75 "/>
<path style=" stroke:none;fill-rule:nonzero;fill:rgb(20.392157%,59.607846%,85.882354%);fill-opacity:1;" d="M 9.179688 28.3125 C 8.535156 28.3125 7.953125 28.167969 7.441406 27.878906 C 6.585938 27.390625 5.996094 26.558594 5.683594 25.394531 C 5.320312 24.042969 5.363281 22.246094 5.808594 20.191406 C 2.234375 18.960938 0.1875 17.074219 0.1875 15 C 0.1875 12.925781 2.234375 11.039062 5.808594 9.808594 C 5.363281 7.753906 5.320312 5.957031 5.683594 4.605469 C 5.992188 3.441406 6.585938 2.605469 7.441406 2.121094 C 7.949219 1.832031 8.535156 1.6875 9.175781 1.6875 C 10.820312 1.6875 12.886719 2.710938 15 4.574219 C 17.117188 2.710938 19.179688 1.6875 20.820312 1.6875 C 21.464844 1.6875 22.046875 1.835938 22.558594 2.125 C 23.414062 2.609375 24.003906 3.445312 24.316406 4.605469 C 24.679688 5.957031 24.632812 7.753906 24.191406 9.808594 C 27.765625 11.039062 29.8125 12.925781 29.8125 15 C 29.8125 17.074219 27.765625 18.960938 24.191406 20.191406 C 24.632812 22.246094 24.675781 24.042969 24.316406 25.394531 C 24.003906 26.554688 23.414062 27.390625 22.558594 27.875 C 22.050781 28.164062 21.464844 28.3125 20.824219 28.3125 C 19.179688 28.3125 17.113281 27.289062 15 25.425781 C 12.886719 27.289062 10.820312 28.3125 9.179688 28.3125 Z M 7.25 20.628906 C 6.878906 22.394531 6.839844 23.90625 7.132812 25.007812 C 7.335938 25.765625 7.6875 26.292969 8.179688 26.574219 C 8.464844 26.734375 8.796875 26.8125 9.179688 26.8125 C 10.449219 26.8125 12.125 25.957031 13.910156 24.398438 C 13.015625 23.5 12.144531 22.480469 11.3125 21.367188 C 9.875 21.210938 8.511719 20.960938 7.25 20.628906 Z M 16.089844 24.398438 C 17.875 25.957031 19.550781 26.8125 20.824219 26.8125 C 21.203125 26.8125 21.539062 26.730469 21.820312 26.570312 C 22.3125 26.292969 22.664062 25.765625 22.867188 25.007812 C 23.160156 23.90625 23.117188 22.394531 22.746094 20.628906 C 21.488281 20.960938 20.121094 21.210938 18.683594 21.367188 C 17.855469 22.480469 16.984375 23.5 16.089844 24.398438 Z M 13.335938 21.523438 C 13.882812 22.1875 14.4375 22.808594 15 23.375 C 15.558594 22.808594 16.117188 22.1875 16.660156 21.523438 C 16.101562 21.550781 15.546875 21.5625 15 21.5625 C 14.453125 21.5625 13.898438 21.550781 13.335938 21.523438 Z M 12.132812 19.941406 C 13.066406 20.023438 14.03125 20.0625 15 20.0625 C 15.96875 20.0625 16.933594 20.023438 17.867188 19.941406 C 18.425781 19.160156 18.957031 18.34375 19.449219 17.507812 C 19.921875 16.699219 20.371094 15.855469 20.777344 15 C 20.371094 14.144531 19.925781 13.304688 19.449219 12.492188 C 18.957031 11.660156 18.425781 10.839844 17.867188 10.058594 C 16.933594 9.976562 15.96875 9.9375 15 9.9375 C 14.03125 9.9375 13.066406 9.976562 12.132812 10.058594 C 11.574219 10.839844 11.042969 11.660156 10.550781 12.492188 C 10.074219 13.304688 9.628906 14.144531 9.21875 15 C 9.625 15.851562 10.074219 16.695312 10.550781 17.507812 C 11.039062 18.335938 11.570312 19.15625 12.132812 19.941406 Z M 21.558594 16.792969 C 21.292969 17.296875 21.019531 17.792969 20.738281 18.265625 C 20.457031 18.75 20.15625 19.230469 19.84375 19.707031 C 20.734375 19.570312 21.585938 19.394531 22.382812 19.179688 C 22.164062 18.414062 21.886719 17.609375 21.558594 16.792969 Z M 7.613281 19.179688 C 8.410156 19.390625 9.261719 19.566406 10.152344 19.707031 C 9.839844 19.226562 9.539062 18.746094 9.257812 18.265625 C 8.976562 17.792969 8.703125 17.296875 8.4375 16.792969 C 8.113281 17.609375 7.835938 18.410156 7.613281 19.179688 Z M 22.429688 15 C 23.003906 16.273438 23.472656 17.527344 23.820312 18.742188 C 26.597656 17.765625 28.3125 16.339844 28.3125 15 C 28.3125 13.660156 26.597656 12.234375 23.820312 11.257812 C 23.472656 12.472656 23.003906 13.726562 22.429688 15 Z M 6.175781 11.257812 C 3.402344 12.234375 1.6875 13.660156 1.6875 15 C 1.6875 16.339844 3.402344 17.765625 6.179688 18.742188 C 6.527344 17.527344 6.996094 16.269531 7.566406 15 C 6.996094 13.730469 6.527344 12.472656 6.175781 11.257812 Z M 7.613281 10.820312 C 7.835938 11.589844 8.113281 12.390625 8.4375 13.207031 C 8.703125 12.703125 8.976562 12.210938 9.257812 11.734375 C 9.539062 11.253906 9.839844 10.769531 10.152344 10.292969 C 9.261719 10.429688 8.410156 10.609375 7.613281 10.820312 Z M 19.847656 10.292969 C 20.160156 10.773438 20.460938 11.253906 20.742188 11.734375 C 21.019531 12.207031 21.296875 12.703125 21.558594 13.207031 C 21.886719 12.390625 22.164062 11.589844 22.386719 10.820312 C 21.585938 10.605469 20.734375 10.429688 19.847656 10.292969 Z M 9.175781 3.1875 C 8.796875 3.1875 8.460938 3.265625 8.179688 3.429688 C 7.6875 3.707031 7.335938 4.234375 7.132812 4.992188 C 6.835938 6.09375 6.878906 7.605469 7.25 9.375 C 8.511719 9.039062 9.875 8.789062 11.3125 8.632812 C 12.144531 7.519531 13.019531 6.5 13.910156 5.601562 C 12.125 4.042969 10.449219 3.1875 9.175781 3.1875 Z M 18.683594 8.632812 C 20.121094 8.789062 21.488281 9.039062 22.746094 9.371094 C 23.121094 7.605469 23.160156 6.09375 22.867188 4.992188 C 22.664062 4.234375 22.3125 3.707031 21.820312 3.429688 C 21.539062 3.269531 21.203125 3.1875 20.820312 3.1875 C 19.550781 3.1875 17.875 4.042969 16.089844 5.601562 C 16.984375 6.5 17.855469 7.519531 18.683594 8.632812 Z M 15 8.4375 C 15.546875 8.4375 16.101562 8.449219 16.660156 8.476562 C 16.117188 7.8125 15.5625 7.191406 15 6.625 C 14.4375 7.191406 13.882812 7.8125 13.339844 8.476562 C 13.898438 8.449219 14.453125 8.4375 15 8.4375 Z M 15 8.4375 "/>
<path style=" stroke:none;fill-rule:nonzero;fill:rgb(30.588236%,47.843137%,70.980394%);fill-opacity:1;" d="M 9.175781 1.875 C 10.863281 1.875 12.925781 2.964844 15 4.824219 C 17.078125 2.964844 19.140625 1.875 20.824219 1.875 C 21.429688 1.875 21.984375 2.015625 22.46875 2.289062 C 23.277344 2.746094 23.835938 3.542969 24.132812 4.652344 C 24.539062 6.121094 24.453125 7.929688 23.972656 9.933594 C 27.429688 11.089844 29.625 12.910156 29.625 15 C 29.625 17.089844 27.429688 18.910156 23.972656 20.066406 C 24.472656 22.230469 24.558594 24.089844 24.132812 25.347656 C 23.835938 26.457031 23.277344 27.253906 22.46875 27.710938 C 21.984375 27.984375 21.546875 28.125 20.9375 28.125 C 20.9375 28.125 20.78125 28.125 20.78125 28.125 C 19.097656 28.125 17.074219 27.035156 15 25.175781 C 12.925781 27.035156 10.863281 28.125 9.175781 28.125 C 8.570312 28.125 8.015625 27.988281 7.53125 27.714844 C 6.722656 27.253906 6.160156 26.457031 5.863281 25.347656 C 5.417969 23.953125 5.507812 22.121094 6.027344 20.066406 C 2.570312 18.910156 0.375 17.089844 0.375 15 C 0.375 12.910156 2.570312 11.089844 6.027344 9.933594 C 5.769531 8.785156 5.605469 7.722656 5.597656 6.75 C 5.59375 5.984375 5.699219 5.269531 5.863281 4.652344 C 6.160156 3.542969 6.722656 2.746094 7.53125 2.285156 C 8.015625 2.011719 8.566406 1.875 9.175781 1.875 M 7.109375 9.605469 C 8.414062 9.246094 9.859375 8.976562 11.414062 8.8125 C 12.308594 7.609375 13.242188 6.523438 14.183594 5.59375 C 12.359375 3.960938 10.578125 3 9.175781 3 C 8.765625 3 8.398438 3.085938 8.085938 3.265625 C 7.550781 3.570312 7.167969 4.132812 6.949219 4.945312 C 6.628906 6.144531 6.703125 7.769531 7.109375 9.605469 M 22.890625 9.605469 C 23.296875 7.769531 23.371094 6.144531 23.046875 4.945312 C 22.832031 4.136719 22.449219 3.570312 21.914062 3.265625 C 21.601562 3.089844 21.234375 3 20.824219 3 C 19.421875 3 17.644531 3.964844 15.816406 5.59375 C 16.757812 6.523438 17.691406 7.609375 18.585938 8.8125 C 20.136719 8.976562 21.585938 9.246094 22.890625 9.605469 M 12.929688 8.6875 C 13.605469 8.648438 14.28125 8.613281 14.988281 8.613281 C 15.691406 8.613281 16.394531 8.648438 17.070312 8.6875 C 16.394531 7.832031 15.695312 7.050781 15 6.359375 C 14.304688 7.050781 13.609375 7.832031 12.929688 8.6875 M 15 20.25 C 16.035156 20.25 17.027344 20.203125 17.96875 20.121094 C 18.539062 19.328125 19.089844 18.484375 19.609375 17.601562 C 20.117188 16.738281 20.574219 15.867188 20.984375 15 C 20.574219 14.132812 20.117188 13.261719 19.609375 12.398438 C 19.089844 11.515625 18.539062 10.671875 17.96875 9.878906 C 17.027344 9.796875 16.035156 9.75 15 9.75 C 13.964844 9.75 12.972656 9.796875 12.03125 9.878906 C 11.460938 10.671875 10.910156 11.515625 10.390625 12.398438 C 9.882812 13.261719 9.421875 14.132812 9.011719 15 C 9.421875 15.867188 9.882812 16.738281 10.386719 17.601562 C 10.90625 18.484375 11.457031 19.328125 12.027344 20.121094 C 12.972656 20.203125 13.964844 20.25 15 20.25 M 21.578125 13.65625 C 22 12.640625 22.351562 11.640625 22.617188 10.6875 C 21.660156 10.425781 20.601562 10.207031 19.457031 10.046875 C 19.84375 10.621094 20.21875 11.214844 20.578125 11.828125 C 20.9375 12.433594 21.269531 13.046875 21.578125 13.65625 M 8.417969 13.65625 C 8.730469 13.046875 9.0625 12.433594 9.417969 11.828125 C 9.78125 11.214844 10.15625 10.621094 10.542969 10.046875 C 9.394531 10.207031 8.339844 10.425781 7.382812 10.6875 C 7.648438 11.640625 7.996094 12.640625 8.417969 13.65625 M 23.695312 18.984375 C 26.722656 17.957031 28.5 16.449219 28.5 15 C 28.5 13.550781 26.722656 12.042969 23.695312 11.015625 C 23.339844 12.292969 22.84375 13.636719 22.226562 15 C 22.84375 16.363281 23.339844 17.707031 23.695312 18.984375 M 6.304688 18.984375 C 6.660156 17.707031 7.152344 16.363281 7.773438 15 C 7.152344 13.636719 6.660156 12.292969 6.304688 11.015625 C 3.273438 12.042969 1.5 13.550781 1.5 15 C 1.5 16.449219 3.277344 17.957031 6.304688 18.984375 M 19.457031 19.953125 C 20.601562 19.792969 21.660156 19.574219 22.617188 19.3125 C 22.351562 18.359375 22 17.359375 21.578125 16.34375 C 21.269531 16.953125 20.9375 17.566406 20.578125 18.171875 C 20.21875 18.785156 19.84375 19.378906 19.457031 19.953125 M 10.539062 19.953125 C 10.15625 19.378906 9.78125 18.785156 9.417969 18.171875 C 9.0625 17.566406 8.730469 16.957031 8.417969 16.347656 C 7.996094 17.363281 7.648438 18.359375 7.382812 19.3125 C 8.339844 19.574219 9.394531 19.792969 10.539062 19.953125 M 9.179688 27 C 10.578125 27 12.359375 26.039062 14.183594 24.410156 C 13.242188 23.476562 12.308594 22.390625 11.414062 21.1875 C 9.859375 21.023438 8.414062 20.753906 7.109375 20.394531 C 6.703125 22.230469 6.628906 23.855469 6.953125 25.054688 C 7.167969 25.867188 7.550781 26.429688 8.089844 26.734375 C 8.398438 26.910156 8.765625 27 9.179688 27 M 20.824219 27 C 21.234375 27 21.601562 26.910156 21.914062 26.734375 C 22.449219 26.429688 22.832031 25.863281 23.046875 25.054688 C 23.367188 23.855469 23.296875 22.230469 22.890625 20.394531 C 21.585938 20.753906 20.136719 21.023438 18.582031 21.1875 C 17.691406 22.390625 16.757812 23.476562 15.816406 24.40625 C 17.640625 26.035156 19.421875 27 20.824219 27 M 15 23.640625 C 15.695312 22.949219 16.390625 22.167969 17.070312 21.3125 C 16.394531 21.351562 15.734375 21.4375 15.03125 21.4375 C 14.324219 21.4375 13.601562 21.351562 12.929688 21.3125 C 13.605469 22.167969 14.304688 22.949219 15 23.640625 M 9.042969 1.527344 C 8.367188 1.527344 7.886719 1.652344 7.347656 1.960938 C 6.449219 2.46875 5.828125 3.34375 5.503906 4.554688 C 5.140625 5.902344 5.171875 7.667969 5.589844 9.6875 C 2.03125 10.945312 0 12.871094 0 15 C 0 17.128906 2.03125 19.054688 5.589844 20.3125 C 5.171875 22.332031 5.140625 24.097656 5.503906 25.445312 C 5.828125 26.65625 6.449219 27.53125 7.347656 28.039062 C 7.886719 28.347656 8.535156 28.476562 9.210938 28.476562 C 10.894531 28.476562 12.867188 27.527344 15 25.675781 C 17.132812 27.523438 19.140625 28.5 20.820312 28.5 C 21.496094 28.5 22.113281 28.34375 22.652344 28.039062 C 23.550781 27.527344 24.171875 26.65625 24.496094 25.445312 C 24.855469 24.097656 24.824219 22.332031 24.40625 20.3125 C 27.96875 19.054688 30 17.128906 30 15 C 30 12.871094 27.96875 10.945312 24.410156 9.6875 C 24.824219 7.667969 24.855469 5.902344 24.496094 4.554688 C 24.171875 3.34375 23.550781 2.472656 22.652344 1.960938 C 22.113281 1.65625 21.496094 1.5 20.820312 1.5 C 19.140625 1.5 17.132812 2.476562 15 4.324219 C 12.867188 2.472656 10.851562 1.527344 9.167969 1.527344 Z M 7.394531 9.140625 C 7.222656 8.269531 7.105469 7.453125 7.097656 6.738281 C 7.09375 6.09375 7.183594 5.53125 7.3125 5.042969 C 7.503906 4.332031 7.824219 3.84375 8.273438 3.589844 C 8.527344 3.445312 8.835938 3.347656 9.179688 3.347656 C 10.375 3.347656 11.945312 4.164062 13.636719 5.613281 C 12.804688 6.464844 11.992188 7.417969 11.210938 8.457031 C 9.867188 8.605469 8.585938 8.835938 7.394531 9.140625 Z M 16.363281 5.613281 C 18.058594 4.167969 19.632812 3.375 20.820312 3.375 C 21.167969 3.375 21.472656 3.449219 21.726562 3.59375 C 22.171875 3.847656 22.496094 4.332031 22.6875 5.042969 C 23.011719 6.097656 22.972656 7.503906 22.605469 9.140625 C 21.414062 8.835938 20.132812 8.605469 18.789062 8.457031 C 18.007812 7.417969 17.195312 6.464844 16.363281 5.613281 Z M 13.753906 8.273438 C 14.164062 7.785156 14.582031 7.324219 15 6.894531 C 15.421875 7.324219 15.835938 7.785156 16.246094 8.273438 C 15.828125 8.257812 15.410156 8.25 15 8.25 C 14.589844 8.25 14.171875 8.257812 13.753906 8.273438 Z M 12.234375 10.238281 C 13.136719 10.164062 14.066406 10.109375 15 10.109375 C 15.933594 10.109375 16.863281 10.164062 17.765625 10.238281 C 18.300781 10.996094 18.8125 11.785156 19.285156 12.589844 C 19.742188 13.367188 20.175781 14.179688 20.570312 15 C 20.175781 15.820312 19.742188 16.632812 19.285156 17.410156 C 18.8125 18.214844 18.300781 19.003906 17.765625 19.761719 C 16.863281 19.835938 15.933594 19.9375 15 19.9375 C 14.066406 19.9375 13.136719 19.835938 12.234375 19.761719 C 11.695312 19.003906 11.183594 18.214844 10.710938 17.410156 C 10.253906 16.632812 9.820312 15.820312 9.429688 15 C 9.820312 14.179688 10.253906 13.367188 10.710938 12.589844 C 11.183594 11.785156 11.695312 10.996094 12.234375 10.238281 Z M 21.535156 12.757812 C 21.328125 12.378906 21.117188 12.003906 20.902344 11.636719 C 20.6875 11.273438 20.464844 10.910156 20.234375 10.546875 C 20.898438 10.660156 21.539062 10.796875 22.152344 10.953125 C 21.976562 11.539062 21.769531 12.144531 21.535156 12.757812 Z M 7.847656 10.953125 C 8.457031 10.796875 9.101562 10.660156 9.765625 10.546875 C 9.535156 10.910156 9.308594 11.273438 9.097656 11.636719 C 8.882812 12 8.671875 12.375 8.464844 12.757812 C 8.230469 12.144531 8.023438 11.539062 7.847656 10.953125 Z M 22.636719 15 C 23.167969 13.8125 23.605469 12.640625 23.945312 11.503906 C 26.535156 12.445312 28.125 13.769531 28.125 15 C 28.125 16.230469 26.535156 17.554688 23.945312 18.496094 C 23.605469 17.359375 23.167969 16.183594 22.636719 15 Z M 6.054688 18.496094 C 3.464844 17.550781 1.875 16.230469 1.875 15 C 1.875 13.769531 3.464844 12.449219 6.054688 11.503906 C 6.390625 12.640625 6.832031 13.816406 7.359375 15 C 6.832031 16.1875 6.390625 17.359375 6.054688 18.496094 Z M 20.230469 19.453125 C 20.464844 19.089844 20.6875 18.726562 20.902344 18.363281 C 21.117188 18 21.328125 17.621094 21.535156 17.242188 C 21.769531 17.855469 21.976562 18.460938 22.152344 19.050781 C 21.539062 19.203125 20.898438 19.339844 20.230469 19.453125 Z M 7.847656 19.046875 C 8.023438 18.460938 8.230469 17.855469 8.464844 17.242188 C 8.671875 17.625 8.882812 18 9.09375 18.363281 C 9.308594 18.726562 9.53125 19.089844 9.765625 19.453125 C 9.101562 19.339844 8.457031 19.203125 7.847656 19.046875 Z M 9.179688 26.625 C 8.832031 26.625 8.527344 26.554688 8.273438 26.410156 C 7.828125 26.15625 7.503906 25.667969 7.3125 24.957031 C 7.003906 23.890625 7.039062 22.484375 7.394531 20.859375 C 8.585938 21.164062 9.867188 21.394531 11.210938 21.542969 C 11.988281 22.582031 12.804688 23.535156 13.636719 24.386719 C 11.945312 25.835938 10.371094 26.625 9.179688 26.625 Z M 18.785156 21.542969 C 20.128906 21.394531 21.414062 21.164062 22.601562 20.859375 C 23.019531 22.636719 23.050781 24.054688 22.683594 24.957031 C 22.496094 25.667969 22.171875 26.152344 21.726562 26.40625 C 21.472656 26.550781 21.167969 26.625 20.824219 26.625 L 20.824219 27 L 20.824219 26.625 C 19.628906 26.625 18.054688 25.832031 16.363281 24.386719 C 17.195312 23.535156 18.007812 22.582031 18.785156 21.542969 Z M 15 23.109375 C 14.578125 22.675781 14.164062 22.214844 13.75 21.726562 C 14.171875 21.742188 14.589844 21.75 15 21.75 C 15.410156 21.75 15.828125 21.742188 16.246094 21.726562 C 15.835938 22.214844 15.417969 22.675781 15 23.109375 Z M 15 23.109375 "/>
</g>
</svg>
