<svg width="53" height="50" viewBox="0 0 53 50" fill="none" xmlns="http://www.w3.org/2000/svg">
<g clip-path="url(#clip0)" filter="url(#filter0_d)">
<path id="youtube" d="M48.9698 12.9975C48.3934 10.8555 46.7047 9.16715 44.5631 8.59037C40.6504 7.51959 24.9995 7.51959 24.9995 7.51959C24.9995 7.51959 9.34902 7.51959 5.4363 8.54956C3.33594 9.12596 1.60598 10.8559 1.02958 12.9975C0 16.9098 0 25.0236 0 25.0236C0 25.0236 0 33.1783 1.02958 37.0498C1.60636 39.1914 3.29474 40.8801 5.43668 41.4569C9.39022 42.5277 24.9999 42.5277 24.9999 42.5277C24.9999 42.5277 40.6504 42.5277 44.5631 41.4977C46.705 40.9213 48.3934 39.2326 48.9702 37.091C49.9998 33.1783 49.9998 25.0648 49.9998 25.0648C49.9998 25.0648 50.041 16.9098 48.9698 12.9975Z" fill="#FF0000"/>
<path d="M20.0164 32.5196L33.031 25.0237L20.0164 17.5278V32.5196Z" fill="white"/>
</g>
<defs>
<filter id="filter0_d" x="0" y="0" width="53" height="53" filterUnits="userSpaceOnUse" color-interpolation-filters="sRGB">
<feFlood flood-opacity="0" result="BackgroundImageFix"/>
<feColorMatrix in="SourceAlpha" type="matrix" values="0 0 0 0 0 0 0 0 0 0 0 0 0 0 0 0 0 0 127 0"/>
<feOffset dx="2" dy="2"/>
<feGaussianBlur stdDeviation="0.5"/>
<feColorMatrix type="matrix" values="0 0 0 0 0 0 0 0 0 0 0 0 0 0 0 0 0 0 0.25 0"/>
<feBlend mode="normal" in2="BackgroundImageFix" result="effect1_dropShadow"/>
<feBlend mode="normal" in="SourceGraphic" in2="effect1_dropShadow" result="shape"/>
</filter>
<clipPath id="clip0">
<rect width="50" height="50" fill="white"/>
</clipPath>
</defs>
</svg>
